<?xml version="1.0" encoding="UTF-8" standalone="no"?>
<!-- Created with Inkscape (http://www.inkscape.org/) -->

<svg
   version="1.1"
   id="svg1"
   width="871.37335"
   height="4147.48"
   viewBox="0 0 871.37335 4147.48"
   sodipodi:docname="ICF_CyprusChapter_Vertical_RGB.eps"
   xmlns:inkscape="http://www.inkscape.org/namespaces/inkscape"
   xmlns:sodipodi="http://sodipodi.sourceforge.net/DTD/sodipodi-0.dtd"
   xmlns="http://www.w3.org/2000/svg"
   xmlns:svg="http://www.w3.org/2000/svg">
  <defs
     id="defs1" />
  <sodipodi:namedview
     id="namedview1"
     pagecolor="#ffffff"
     bordercolor="#000000"
     borderopacity="0.25"
     inkscape:showpageshadow="2"
     inkscape:pageopacity="0.0"
     inkscape:pagecheckerboard="0"
     inkscape:deskcolor="#d1d1d1">
    <inkscape:page
       x="0"
       y="0"
       inkscape:label="1"
       id="page1"
       width="871.37335"
       height="4147.48"
       margin="0"
       bleed="0" />
  </sodipodi:namedview>
  <g
     id="g1"
     inkscape:groupmode="layer"
     inkscape:label="1">
    <g
       id="group-R5">
      <path
         id="path2"
         d="m 514.973,24672.6 c -65.16,0 -125.571,12 -181.235,35.9 -55.672,23.9 -103.914,57.1 -144.746,99.6 -40.824,42.4 -72.793,92.5 -95.8709,150.3 -23.1016,57.7 -34.6406,121.2 -34.6406,190.5 0,68.4 11.3281,131.7 34.0195,189.9 22.676,58.1 54.629,108.4 95.879,150.9 41.23,42.5 89.473,75.5 144.734,99 55.246,23.5 115.871,35.2 181.86,35.2 65.144,0 123.504,-11.1 175.054,-33.4 51.543,-22.2 95.051,-51.3 130.52,-87.2 35.461,-35.8 61.023,-74.8 76.699,-116.9 l -131.133,-61.8 c -19.785,49.4 -51.34,89.7 -94.648,120.6 -43.289,30.9 -95.469,46.4 -156.492,46.4 -61.047,0 -115.051,-14.5 -162.063,-43.3 -47.012,-28.9 -83.508,-68.9 -109.48,-120 -25.981,-51.2 -38.977,-111 -38.977,-179.4 0,-68.5 12.996,-128.5 38.977,-180 25.972,-51.6 62.468,-91.6 109.48,-120 47.012,-28.5 101.016,-42.7 162.063,-42.7 61.023,0 113.203,15.3 156.492,45.8 43.308,30.5 74.863,70.5 94.648,120 l 131.133,-61.9 c -15.676,-41.2 -41.238,-80 -76.699,-116.3 -35.469,-36.3 -78.977,-65.5 -130.52,-87.8 -51.55,-22.3 -109.91,-33.4 -175.054,-33.4"
         style="fill:#43afcb;fill-opacity:1;fill-rule:nonzero;stroke:none"
         transform="matrix(0.13333333,0,0,-0.13333333,0,4147.48)" />
      <path
         id="path3"
         d="m 1092.71,24415.3 c -16.51,0 -32.78,1.4 -48.86,4.3 -16.09,2.9 -30.74,7.2 -43.916,13 v 120 c 9.886,-2.5 21.836,-4.7 35.866,-6.8 14.01,-2.1 27.63,-3.1 40.83,-3.1 38.75,0 67.42,8.5 85.98,25.4 18.55,16.9 35.25,42.6 50.1,77.3 l 44.54,101.4 -2.47,-117.5 -289.499,727.4 h 149.699 l 214.01,-557.9 h -50.71 l 212.78,557.9 h 150.92 l -295.66,-742.2 c -15.68,-39.6 -35.26,-74.5 -58.76,-104.6 -23.51,-30.1 -51.15,-53.4 -82.89,-69.9 -31.76,-16.5 -69.08,-24.7 -111.96,-24.7"
         style="fill:#43afcb;fill-opacity:1;fill-rule:nonzero;stroke:none"
         transform="matrix(0.13333333,0,0,-0.13333333,0,4147.48)" />
      <path
         id="path4"
         d="m 2081.15,24802.5 c 39.59,0 74.63,9.5 105.16,28.5 30.5,18.9 54.62,45.1 72.37,78.5 17.73,33.4 26.59,71.1 26.59,113.2 0,42.1 -8.86,79.6 -26.59,112.6 -17.75,33 -41.87,58.9 -72.37,77.9 -30.53,19 -65.57,28.5 -105.16,28.5 -38.78,0 -73.61,-9.5 -104.54,-28.5 -30.93,-19 -55.26,-44.9 -72.99,-77.9 -17.74,-33 -26.59,-70.5 -26.59,-112.6 0,-42.1 8.85,-79.8 26.59,-113.2 17.73,-33.4 42.06,-59.6 72.99,-78.5 30.93,-19 65.76,-28.5 104.54,-28.5 z M 1737.24,24440 v 916.7 h 133.6 v -138.5 l -16.08,32.1 c 24.74,38 57.72,67.7 98.97,89.1 41.23,21.5 88.24,32.2 141.03,32.2 63.5,0 120.62,-15.3 171.34,-45.8 50.72,-30.5 90.72,-72.2 120,-124.9 29.26,-52.8 43.92,-112.2 43.92,-178.2 0,-66 -14.66,-125.4 -43.92,-178.1 -29.28,-52.8 -69.09,-94.7 -119.38,-125.6 -50.31,-30.9 -107.63,-46.4 -171.96,-46.4 -51.96,0 -99.18,10.7 -141.64,32.2 -42.49,21.4 -75.28,52.3 -98.36,92.8 l 22.27,25.9 V 24440 h -139.79"
         style="fill:#43afcb;fill-opacity:1;fill-rule:nonzero;stroke:none"
         transform="matrix(0.13333333,0,0,-0.13333333,0,4147.48)" />
      <path
         id="path5"
         d="m 2566.09,24687.4 v 669.3 h 133.62 v -134.8 l -12.37,19.8 c 14.85,43.7 38.75,75.2 71.75,94.6 32.98,19.4 72.57,29.1 118.76,29.1 h 40.83 V 25238 h -58.14 c -46.2,0 -83.51,-14.3 -111.97,-42.7 -28.44,-28.5 -42.67,-69.1 -42.67,-121.9 v -386 h -139.81"
         style="fill:#43afcb;fill-opacity:1;fill-rule:nonzero;stroke:none"
         transform="matrix(0.13333333,0,0,-0.13333333,0,4147.48)" />
      <path
         id="path6"
         d="m 3252.7,24672.6 c -50.32,0 -94.45,11.3 -132.38,34 -37.94,22.7 -67.42,54.4 -88.44,95.3 -21.04,40.8 -31.56,88 -31.56,141.6 v 413.2 h 139.8 v -400.8 c 0,-30.5 6.19,-57.3 18.55,-80.4 12.37,-23.1 29.7,-41.1 51.96,-53.8 22.27,-12.8 47.83,-19.2 76.7,-19.2 29.7,0 55.68,6.6 77.94,19.8 22.27,13.2 39.79,31.7 52.58,55.7 12.78,23.9 19.17,51.9 19.17,84.1 v 394.6 h 138.57 v -669.3 h -132.38 v 131.2 l 14.85,-17.3 c -15.68,-41.3 -41.66,-73 -77.94,-95.3 -36.3,-22.3 -78.77,-33.4 -127.42,-33.4"
         style="fill:#43afcb;fill-opacity:1;fill-rule:nonzero;stroke:none"
         transform="matrix(0.13333333,0,0,-0.13333333,0,4147.48)" />
      <path
         id="path7"
         d="m 3986.31,24672.6 c -68.47,0 -128.47,16.9 -180,50.7 -51.55,33.8 -87.65,79.2 -108.25,136.1 l 107.63,50.7 c 18.13,-37.9 43.09,-68 74.85,-90.3 31.74,-22.2 66.99,-33.4 105.77,-33.4 32.98,0 59.78,7.4 80.41,22.3 20.6,14.8 30.93,35 30.93,60.6 0,16.5 -4.54,29.9 -13.61,40.2 -9.09,10.3 -20.42,18.8 -34.02,25.4 -13.61,6.6 -27.43,11.5 -41.45,14.8 l -105.15,29.7 c -57.74,16.5 -100.82,41.5 -129.28,74.9 -28.45,33.4 -42.68,72.3 -42.68,116.9 0,40.4 10.31,75.6 30.93,105.7 20.61,30.1 49.06,53.4 85.36,69.9 36.28,16.5 77.1,24.8 122.47,24.8 61.03,0 115.46,-15.1 163.31,-45.2 47.82,-30.1 81.65,-71.9 101.44,-125.5 l -107.64,-50.8 c -13.19,32.2 -34.01,57.8 -62.47,76.7 -28.45,19 -60.42,28.5 -95.88,28.5 -30.51,0 -54.85,-7.2 -72.98,-21.7 -18.15,-14.4 -27.22,-33.2 -27.22,-56.3 0,-15.6 4.12,-28.6 12.37,-38.9 8.23,-10.3 18.97,-18.6 32.17,-24.8 13.18,-6.1 26.79,-11.3 40.82,-15.4 l 108.87,-32.2 c 55.24,-15.7 97.73,-40.2 127.42,-73.6 29.69,-33.4 44.54,-73.2 44.54,-119.4 0,-39.6 -10.52,-74.4 -31.55,-104.5 -21.03,-30.1 -50.1,-53.6 -87.22,-70.5 -37.11,-16.9 -80.41,-25.4 -129.89,-25.4"
         style="fill:#43afcb;fill-opacity:1;fill-rule:nonzero;stroke:none"
         transform="matrix(0.13333333,0,0,-0.13333333,0,4147.48)" />
      <path
         id="path8"
         d="m 458.359,23250.2 c -57.589,0 -110.421,10.4 -158.523,31.2 -48.106,20.7 -89.848,49.9 -125.184,87.4 -35.359,37.6 -62.859,81.8 -82.5387,132.9 -19.6836,51 -29.5195,107.1 -29.5195,168.3 0,61.2 9.8359,117.4 29.5195,168.4 19.6797,51 47.1797,95.5 82.5387,133.4 35.336,37.8 77.078,67.2 125.184,88 48.102,20.8 100.934,31.1 158.523,31.1 55.371,0 105.118,-9.8 149.231,-29.5 44.082,-19.7 81.258,-45 111.519,-76 30.239,-31 51.926,-63.6 65.051,-97.8 l -82.004,-36.1 c -20.418,47.4 -51.582,85.4 -93.472,114.2 -41.926,28.8 -92.024,43.2 -150.325,43.2 -59.773,0 -112.988,-14.2 -159.621,-42.6 -46.648,-28.4 -83.086,-68 -109.324,-118.6 -26.238,-50.7 -39.359,-109.9 -39.359,-177.7 0,-67 13.121,-126.1 39.359,-177.1 26.238,-51 62.676,-90.6 109.324,-118.6 46.633,-28.1 99.848,-42.1 159.621,-42.1 58.301,0 108.399,14.2 150.325,42.6 41.89,28.5 73.054,66.3 93.472,113.7 l 82.004,-36 c -13.125,-33.6 -34.812,-65.8 -65.051,-96.8 -30.261,-31 -67.437,-56.3 -111.519,-76 -44.113,-19.7 -93.86,-29.5 -149.231,-29.5"
         style="fill:#43afcb;fill-opacity:1;fill-rule:nonzero;stroke:none"
         transform="matrix(0.13333333,0,0,-0.13333333,0,4147.48)" />
      <path
         id="path9"
         d="m 928.457,23263.3 v 827.6 h 81.993 v -355.3 l -18.587,4.4 c 14.577,37.9 38.437,67.8 71.617,89.6 33.15,21.9 71.61,32.8 115.34,32.8 41.54,0 78.89,-9.4 112.06,-28.4 33.15,-19 59.39,-45 78.71,-78.2 19.31,-33.1 28.97,-70.5 28.97,-112 v -380.5 h -82 v 348.8 c 0,35.7 -6.55,65.9 -19.68,90.7 -13.11,24.8 -31.15,43.9 -54.11,57.4 -22.96,13.5 -49.03,20.2 -78.17,20.2 -29.16,0 -55.39,-6.7 -78.71,-20.2 -23.34,-13.5 -41.73,-32.8 -55.22,-57.9 -13.48,-25.2 -20.22,-55.2 -20.22,-90.2 v -348.8 h -81.993"
         style="fill:#43afcb;fill-opacity:1;fill-rule:nonzero;stroke:none"
         transform="matrix(0.13333333,0,0,-0.13333333,0,4147.48)" />
      <path
         id="path10"
         d="m 1724.36,23250.2 c -37.17,0 -70.36,7.1 -99.5,21.3 -29.16,14.2 -52.12,33.7 -68.87,58.5 -16.78,24.8 -25.15,53.2 -25.15,85.3 0,30.6 6.56,58.5 19.68,83.6 13.12,25.2 33.51,46.5 61.23,64 27.68,17.5 63.04,29.9 106.05,37.2 l 229.58,38.2 v -74.3 l -209.9,-35 c -42.28,-7.3 -72.71,-20.8 -91.3,-40.5 -18.58,-19.6 -27.88,-43 -27.88,-69.9 0,-26.3 10.39,-48.5 31.16,-66.7 20.78,-18.2 47.57,-27.4 80.36,-27.4 40.08,0 75.06,8.6 104.96,25.7 29.88,17.2 53.19,40.3 69.97,69.5 16.75,29.1 25.14,61.5 25.14,97.3 v 148.6 c 0,35 -12.76,63.5 -38.26,85.3 -25.53,21.9 -58.68,32.8 -99.49,32.8 -35.71,0 -67.06,-8.9 -94.01,-26.8 -26.98,-17.8 -47.03,-41 -60.15,-69.4 l -74.34,40.5 c 10.93,24.7 28.24,47.3 51.93,67.7 23.68,20.4 50.84,36.7 81.46,48.7 30.61,12 62.32,18 95.11,18 43,0 81.07,-8.4 114.25,-25.1 33.15,-16.8 59.03,-39.9 77.61,-69.4 18.6,-29.6 27.88,-63.6 27.88,-102.3 v -402.3 h -81.99 v 117 l 12.02,-12 c -10.21,-21.9 -26.06,-41.8 -47.54,-59.6 -21.52,-17.9 -46.66,-32.1 -75.44,-42.6 -28.8,-10.6 -60.32,-15.9 -94.57,-15.9"
         style="fill:#43afcb;fill-opacity:1;fill-rule:nonzero;stroke:none"
         transform="matrix(0.13333333,0,0,-0.13333333,0,4147.48)" />
      <path
         id="path11"
         d="m 2472.14,23332.2 c 39.35,0 74.51,9.8 105.5,29.5 30.96,19.7 55.38,46.5 73.26,80.4 17.84,33.9 26.78,71.9 26.78,114.2 0,43 -8.94,81.3 -26.78,114.8 -17.88,33.5 -42.3,60.1 -73.26,79.8 -30.99,19.7 -66.15,29.5 -105.5,29.5 -39.36,0 -74.89,-9.8 -106.59,-29.5 -31.71,-19.7 -56.86,-46.4 -75.44,-80.3 -18.59,-33.9 -27.88,-72 -27.88,-114.3 0,-42.3 9.29,-80.3 27.88,-114.2 18.58,-33.9 43.73,-60.7 75.44,-80.4 31.7,-19.7 67.23,-29.5 106.59,-29.5 z m -291.91,-287.5 v 804.6 h 82 v -131.2 l -13.12,23 c 23.32,37.1 54.47,66.7 93.48,88.5 38.97,21.9 83.63,32.8 133.92,32.8 55.38,0 104.76,-13.3 148.14,-39.9 43.36,-26.6 77.63,-62.8 102.77,-108.8 25.15,-45.9 37.72,-98.3 37.72,-157.4 0,-58.3 -12.57,-110.6 -37.72,-156.9 -25.14,-46.3 -59.41,-82.7 -102.77,-109.3 -43.38,-26.6 -92.76,-39.9 -148.14,-39.9 -50.29,0 -95.66,11.5 -136.11,34.4 -40.45,23 -70.89,55.6 -91.29,97.9 l 13.12,12 v -349.8 h -82"
         style="fill:#43afcb;fill-opacity:1;fill-rule:nonzero;stroke:none"
         transform="matrix(0.13333333,0,0,-0.13333333,0,4147.48)" />
      <path
         id="path12"
         d="m 3122.64,23256.8 c -52.48,0 -92.93,15.3 -121.36,45.9 -28.42,30.6 -42.64,74.3 -42.64,131.2 v 333.4 h -108.23 v 82 h 27.33 c 24.77,0 44.46,8.2 59.04,24.6 14.57,16.4 21.86,37 21.86,61.8 v 49.2 h 82 v -135.6 h 129.01 v -82 h -129.01 v -333.4 c 0,-19.7 2.9,-37 8.74,-52 5.83,-14.9 15.85,-26.7 30.07,-35.5 14.21,-8.7 33.34,-13.1 57.4,-13.1 5.83,0 12.74,0.4 20.77,1.1 8.01,0.7 14.93,1.4 20.77,2.2 v -73.3 c -8.74,-2.2 -18.59,-3.8 -29.51,-4.9 -10.94,-1.1 -19.68,-1.6 -26.24,-1.6"
         style="fill:#43afcb;fill-opacity:1;fill-rule:nonzero;stroke:none"
         transform="matrix(0.13333333,0,0,-0.13333333,0,4147.48)" />
      <path
         id="path13"
         d="m 3567.59,23250.2 c -54.67,0 -104.05,13.3 -148.14,39.9 -44.11,26.6 -78.9,63.2 -104.41,109.9 -25.52,46.6 -38.26,99.5 -38.26,158.5 0,59 12.38,111.3 37.18,156.9 24.76,45.5 58.48,81.4 101.12,107.7 42.63,26.2 90.55,39.3 143.76,39.3 42.26,0 79.99,-7.8 113.16,-23.5 33.16,-15.7 61.4,-36.8 84.73,-63.4 23.32,-26.6 41.17,-56.5 53.57,-89.6 12.39,-33.2 18.59,-67.3 18.59,-102.3 0,-7.2 -0.38,-15.4 -1.1,-24.6 -0.73,-9.1 -1.82,-18.4 -3.28,-27.8 h -495.25 v 76.5 h 448.24 l -39.36,-32.8 c 6.57,40.1 2.01,76 -13.66,107.7 -15.68,31.7 -38.09,56.8 -67.23,75.4 -29.16,18.6 -61.98,27.9 -98.41,27.9 -36.46,0 -70.16,-9.5 -101.13,-28.4 -30.98,-19 -55.21,-45.4 -72.7,-79.3 -17.49,-33.9 -24.42,-74.2 -20.77,-120.8 -3.65,-46.6 3.83,-87.3 22.41,-121.9 18.58,-34.6 44.09,-61.4 76.53,-80.3 32.43,-19 67.24,-28.5 104.41,-28.5 43,0 79.08,10.2 108.24,30.6 29.14,20.4 52.83,46 71.06,76.6 l 69.97,-37.2 c -11.66,-26.2 -29.52,-50.5 -53.57,-72.7 -24.05,-22.2 -52.66,-40.1 -85.82,-53.6 -33.17,-13.4 -69.8,-20.2 -109.88,-20.2"
         style="fill:#43afcb;fill-opacity:1;fill-rule:nonzero;stroke:none"
         transform="matrix(0.13333333,0,0,-0.13333333,0,4147.48)" />
      <path
         id="path14"
         d="m 3973.18,23263.3 v 586 h 82 v -96.2 l -10.93,14.2 c 13.84,27.7 34.79,49.6 62.86,65.6 28.05,16 62.13,24.1 102.22,24.1 h 37.17 v -82 h -51.38 c -42.28,0 -76.17,-13.2 -101.67,-39.4 -25.53,-26.2 -38.27,-63.4 -38.27,-111.5 v -360.8 h -82"
         style="fill:#43afcb;fill-opacity:1;fill-rule:nonzero;stroke:none"
         transform="matrix(0.13333333,0,0,-0.13333333,0,4147.48)" />
      <path
         id="path15"
         d="m 77.6914,30513.3 c 0,326.9 265.9216,592.8 592.7736,592.8 326.855,0 592.775,-265.9 592.775,-592.8 0,-326.9 -265.92,-592.8 -592.775,-592.8 -326.852,0 -592.7736,265.9 -592.7736,592.8"
         style="fill:#43afcb;fill-opacity:1;fill-rule:nonzero;stroke:none"
         transform="matrix(0.13333333,0,0,-0.13333333,0,4147.48)" />
      <path
         id="path16"
         d="m 6239.89,29731.1 c 107.72,0 244.25,-16.2 295.4,-23 v 977.7 c 0,0 -213.46,27.8 -473.62,27.8 -1042.75,0 -1819.03,-449.6 -1819.03,-1565.8 l -0.51,-624.7 c -16.72,-396.2 -426.95,-987.2 -1024.38,-987.2 -762.71,0 -969.42,606.4 -969.42,882.4 0,549.2 510.72,920.4 1043.92,920.4 98.77,0 110.03,-0.4 196.41,-4.6 l 0.18,971.9 c 0,0 -165.5,16.6 -260.82,16.6 -951.39,0 -1778,-591.2 -2009.68,-1445.1 v 650.6 H 123.012 l -0.36,-3000.5 H 1218.34 v 1366.1 c 240.11,-888.2 1109.95,-1440.1 1925.79,-1440.1 468.01,0 846.12,175.5 1139.21,432.5 l -0.33,-358.7 h 1053.82 v 1428.7 h 1028.01 v 917.3 H 5336.83 v 302.8 c 0,488.2 507.23,554.9 903.06,554.9"
         style="fill:#303898;fill-opacity:1;fill-rule:nonzero;stroke:none"
         transform="matrix(0.13333333,0,0,-0.13333333,0,4147.48)" />
      <path
         id="path17"
         d="m 458.633,13157.7 c -65.156,0 -125.567,12 -181.231,35.9 -55.672,23.9 -103.918,57.1 -144.746,99.6 -40.824,42.4 -72.7927,92.5 -95.8747,150.3 -23.1016,57.7 -34.63677,121.2 -34.63677,190.5 0,68.4 11.32817,131.7 34.01567,189.9 22.6796,58.1 54.6289,108.4 95.8788,150.9 41.231,42.5 89.477,75.5 144.738,99 55.243,23.5 115.868,35.3 181.856,35.3 65.144,0 123.508,-11.2 175.058,-33.5 51.543,-22.2 95.047,-51.3 130.52,-87.2 35.457,-35.8 61.023,-74.8 76.695,-116.9 l -131.133,-61.8 c -19.785,49.4 -51.335,89.7 -94.644,120.6 -43.293,30.9 -95.473,46.4 -156.496,46.4 -61.043,0 -115.047,-14.5 -162.063,-43.3 -47.007,-28.9 -83.504,-68.9 -109.48,-120 -25.977,-51.2 -38.977,-111 -38.977,-179.4 0,-68.5 13,-128.5 38.977,-180 25.976,-51.6 62.473,-91.6 109.48,-120 47.016,-28.5 101.02,-42.7 162.063,-42.7 61.023,0 113.203,15.3 156.496,45.8 43.309,30.5 74.859,70.5 94.644,120 l 131.133,-61.9 c -15.672,-41.2 -41.238,-80 -76.695,-116.3 -35.473,-36.3 -78.977,-65.5 -130.52,-87.8 -51.55,-22.3 -109.914,-33.4 -175.058,-33.4"
         style="fill:#43afcb;fill-opacity:1;fill-rule:nonzero;stroke:none"
         transform="matrix(0.13333333,0,0,-0.13333333,0,4147.48)" />
      <path
         id="path18"
         d="m 1036.38,12900.4 c -16.52,0 -32.79,1.4 -48.868,4.3 -16.086,2.9 -30.742,7.2 -43.918,13 v 120 c 9.89,-2.5 21.836,-4.7 35.871,-6.8 14.012,-2.1 27.625,-3.1 40.825,-3.1 38.75,0 67.42,8.5 85.98,25.4 18.55,16.9 35.25,42.6 50.1,77.3 l 44.54,101.4 -2.47,-117.5 -289.495,727.4 h 149.695 l 214.02,-557.9 h -50.72 l 212.79,557.9 h 150.91 l -295.66,-742.2 c -15.67,-39.6 -35.25,-74.5 -58.76,-104.6 -23.51,-30.1 -51.15,-53.4 -82.89,-69.9 -31.76,-16.5 -69.08,-24.7 -111.95,-24.7"
         style="fill:#43afcb;fill-opacity:1;fill-rule:nonzero;stroke:none"
         transform="matrix(0.13333333,0,0,-0.13333333,0,4147.48)" />
      <path
         id="path19"
         d="m 2024.81,13287.6 c 39.59,0 74.63,9.5 105.16,28.5 30.5,18.9 54.62,45.1 72.37,78.5 17.73,33.4 26.6,71.1 26.6,113.2 0,42.1 -8.87,79.6 -26.6,112.6 -17.75,33 -41.87,58.9 -72.37,77.9 -30.53,19 -65.57,28.5 -105.16,28.5 -38.77,0 -73.61,-9.5 -104.54,-28.5 -30.92,-19 -55.26,-44.9 -72.98,-77.9 -17.75,-33 -26.6,-70.5 -26.6,-112.6 0,-42.1 8.85,-79.8 26.6,-113.2 17.72,-33.4 42.06,-59.6 72.98,-78.5 30.93,-19 65.77,-28.5 104.54,-28.5 z m -343.91,-362.5 v 916.7 h 133.6 v -138.5 l -16.08,32.1 c 24.74,38 57.72,67.7 98.97,89.1 41.23,21.5 88.24,32.2 141.03,32.2 63.5,0 120.62,-15.3 171.35,-45.8 50.71,-30.5 90.71,-72.2 120,-124.9 29.25,-52.8 43.91,-112.2 43.91,-178.2 0,-66 -14.66,-125.4 -43.91,-178.1 -29.29,-52.8 -69.1,-94.7 -119.39,-125.6 -50.31,-30.9 -107.63,-46.4 -171.96,-46.4 -51.96,0 -99.18,10.7 -141.64,32.2 -42.49,21.4 -75.28,52.3 -98.36,92.8 l 22.27,25.9 v -383.5 H 1680.9"
         style="fill:#43afcb;fill-opacity:1;fill-rule:nonzero;stroke:none"
         transform="matrix(0.13333333,0,0,-0.13333333,0,4147.48)" />
      <path
         id="path20"
         d="m 2509.76,13172.5 v 669.3 h 133.61 V 13707 l -12.36,19.8 c 14.84,43.7 38.75,75.2 71.74,94.6 32.98,19.4 72.57,29.1 118.76,29.1 h 40.83 v -127.4 h -58.14 c -46.2,0 -83.51,-14.3 -111.96,-42.7 -28.45,-28.5 -42.68,-69.1 -42.68,-121.9 v -386 h -139.8"
         style="fill:#43afcb;fill-opacity:1;fill-rule:nonzero;stroke:none"
         transform="matrix(0.13333333,0,0,-0.13333333,0,4147.48)" />
      <path
         id="path21"
         d="m 3196.36,13157.7 c -50.32,0 -94.45,11.4 -132.38,34 -37.94,22.7 -67.42,54.5 -88.44,95.3 -21.04,40.8 -31.56,88 -31.56,141.6 v 413.2 h 139.8 V 13441 c 0,-30.5 6.19,-57.3 18.55,-80.4 12.38,-23.1 29.7,-41.1 51.97,-53.8 22.26,-12.8 47.82,-19.2 76.7,-19.2 29.69,0 55.67,6.6 77.94,19.8 22.26,13.2 39.78,31.7 52.57,55.7 12.78,23.9 19.17,51.9 19.17,84.1 v 394.6 h 138.57 v -669.3 h -132.37 v 131.2 l 14.84,-17.3 c -15.68,-41.3 -41.66,-73 -77.94,-95.3 -36.3,-22.3 -78.77,-33.4 -127.42,-33.4"
         style="fill:#43afcb;fill-opacity:1;fill-rule:nonzero;stroke:none"
         transform="matrix(0.13333333,0,0,-0.13333333,0,4147.48)" />
      <path
         id="path22"
         d="m 3929.97,13157.7 c -68.47,0 -128.47,16.9 -180,50.7 -51.55,33.8 -87.65,79.2 -108.25,136.1 l 107.64,50.7 c 18.12,-37.9 43.08,-68 74.84,-90.3 31.74,-22.2 66.99,-33.4 105.77,-33.4 32.98,0 59.79,7.4 80.41,22.3 20.61,14.8 30.93,35 30.93,60.6 0,16.5 -4.54,29.9 -13.6,40.2 -9.1,10.3 -20.42,18.8 -34.03,25.4 -13.61,6.6 -27.43,11.5 -41.44,14.8 l -105.16,29.7 c -57.73,16.5 -100.82,41.5 -129.28,74.9 -28.44,33.4 -42.67,72.3 -42.67,116.9 0,40.4 10.3,75.6 30.92,105.7 20.61,30.1 49.06,53.4 85.37,69.9 36.28,16.5 77.1,24.8 122.47,24.8 61.02,0 115.46,-15.1 163.3,-45.2 47.82,-30.1 81.65,-71.9 101.44,-125.5 L 4071,13635.2 c -13.2,32.2 -34.02,57.8 -62.47,76.7 -28.46,19 -60.42,28.5 -95.88,28.5 -30.52,0 -54.86,-7.2 -72.99,-21.7 -18.15,-14.4 -27.22,-33.2 -27.22,-56.3 0,-15.6 4.12,-28.6 12.37,-38.9 8.24,-10.3 18.97,-18.6 32.17,-24.8 13.19,-6.1 26.79,-11.3 40.82,-15.4 l 108.87,-32.2 c 55.24,-15.7 97.73,-40.2 127.42,-73.6 29.69,-33.4 44.54,-73.2 44.54,-119.4 0,-39.6 -10.51,-74.4 -31.55,-104.5 -21.03,-30.1 -50.1,-53.6 -87.22,-70.5 -37.11,-16.9 -80.41,-25.4 -129.89,-25.4"
         style="fill:#43afcb;fill-opacity:1;fill-rule:nonzero;stroke:none"
         transform="matrix(0.13333333,0,0,-0.13333333,0,4147.48)" />
      <path
         id="path23"
         d="m 402.02,11735.3 c -57.586,0 -110.418,10.4 -158.524,31.2 -48.105,20.7 -89.844,49.9 -125.18,87.4 -35.3629,37.6 -62.8629,81.8 -82.5387,132.9 -19.6835,51 -29.52339,107.1 -29.52339,168.3 0,61.2 9.83989,117.4 29.52339,168.4 19.6758,51 47.1758,95.5 82.5387,133.4 35.336,37.8 77.075,67.2 125.18,88 48.106,20.8 100.938,31.1 158.524,31.1 55.375,0 105.121,-9.8 149.23,-29.5 44.082,-19.7 81.262,-45 111.523,-76 30.235,-31 51.922,-63.6 65.047,-97.8 l -82,-36.1 c -20.422,47.4 -51.582,85.4 -93.476,114.2 -41.922,28.8 -92.024,43.2 -150.324,43.2 -59.774,0 -112.989,-14.2 -159.618,-42.6 -46.648,-28.4 -83.086,-68 -109.328,-118.6 -26.238,-50.7 -39.3592,-109.9 -39.3592,-177.7 0,-67 13.1212,-126.1 39.3592,-177.1 26.242,-51 62.68,-90.6 109.328,-118.6 46.629,-28.1 99.844,-42.1 159.618,-42.1 58.3,0 108.402,14.2 150.324,42.6 41.894,28.5 73.054,66.3 93.476,113.7 l 82,-36 c -13.125,-33.6 -34.812,-65.8 -65.047,-96.8 -30.261,-31 -67.441,-56.3 -111.523,-76 -44.109,-19.7 -93.855,-29.5 -149.23,-29.5"
         style="fill:#43afcb;fill-opacity:1;fill-rule:nonzero;stroke:none"
         transform="matrix(0.13333333,0,0,-0.13333333,0,4147.48)" />
      <path
         id="path24"
         d="m 872.117,11748.4 v 827.6 h 81.992 v -355.3 l -18.582,4.4 c 14.571,37.9 38.438,67.8 71.613,89.6 33.15,21.9 71.61,32.8 115.34,32.8 41.54,0 78.89,-9.4 112.06,-28.4 33.16,-19 59.4,-45 78.71,-78.2 19.31,-33.1 28.98,-70.5 28.98,-112 v -380.5 h -82.01 v 348.8 c 0,35.7 -6.55,65.9 -19.67,90.7 -13.12,24.8 -31.16,43.9 -54.11,57.4 -22.96,13.5 -49.04,20.2 -78.18,20.2 -29.16,0 -55.39,-6.7 -78.71,-20.2 -23.34,-13.5 -41.73,-32.8 -55.214,-57.9 -13.484,-25.2 -20.227,-55.2 -20.227,-90.2 v -348.8 h -81.992"
         style="fill:#43afcb;fill-opacity:1;fill-rule:nonzero;stroke:none"
         transform="matrix(0.13333333,0,0,-0.13333333,0,4147.48)" />
      <path
         id="path25"
         d="m 1668.02,11735.3 c -37.17,0 -70.35,7.1 -99.49,21.3 -29.16,14.2 -52.12,33.7 -68.88,58.5 -16.78,24.8 -25.15,53.2 -25.15,85.3 0,30.6 6.56,58.5 19.68,83.6 13.12,25.2 33.52,46.5 61.23,64 27.69,17.5 63.04,29.9 106.05,37.2 l 229.58,38.2 v -74.3 l -209.9,-35 c -42.28,-7.3 -72.71,-20.8 -91.3,-40.5 -18.58,-19.6 -27.88,-43 -27.88,-69.9 0,-26.3 10.39,-48.5 31.17,-66.7 20.78,-18.2 47.56,-27.4 80.36,-27.4 40.07,0 75.05,8.6 104.95,25.7 29.88,17.2 53.19,40.3 69.97,69.5 16.76,29.1 25.14,61.5 25.14,97.3 v 148.6 c 0,35 -12.76,63.5 -38.26,85.3 -25.52,21.9 -58.68,32.8 -99.49,32.8 -35.71,0 -67.06,-8.9 -94.01,-26.8 -26.98,-17.8 -47.02,-41 -60.15,-69.4 l -74.34,40.5 c 10.93,24.7 28.24,47.3 51.93,67.7 23.68,20.4 50.84,36.7 81.46,48.7 30.61,12 62.32,18 95.11,18 43,0 81.08,-8.4 114.25,-25.1 33.15,-16.8 59.03,-39.9 77.62,-69.4 18.59,-29.6 27.88,-63.6 27.88,-102.3 v -402.3 h -82 v 117 l 12.03,-12 c -10.22,-21.9 -26.07,-41.8 -47.55,-59.6 -21.52,-17.9 -46.66,-32.1 -75.44,-42.6 -28.8,-10.6 -60.31,-15.9 -94.57,-15.9"
         style="fill:#43afcb;fill-opacity:1;fill-rule:nonzero;stroke:none"
         transform="matrix(0.13333333,0,0,-0.13333333,0,4147.48)" />
      <path
         id="path26"
         d="m 2415.8,11817.3 c 39.36,0 74.51,9.8 105.5,29.5 30.97,19.7 55.38,46.5 73.26,80.4 17.84,33.9 26.78,71.9 26.78,114.2 0,43 -8.94,81.3 -26.78,114.8 -17.88,33.5 -42.29,60.1 -73.26,79.8 -30.99,19.7 -66.14,29.5 -105.5,29.5 -39.35,0 -74.89,-9.8 -106.59,-29.5 -31.71,-19.7 -56.86,-46.4 -75.44,-80.3 -18.58,-33.9 -27.88,-72 -27.88,-114.3 0,-42.3 9.3,-80.3 27.88,-114.2 18.58,-33.9 43.73,-60.7 75.44,-80.4 31.7,-19.7 67.24,-29.5 106.59,-29.5 z m -291.9,-287.5 v 804.6 h 81.99 v -131.2 l -13.12,23 c 23.32,37.1 54.48,66.7 93.48,88.5 38.97,21.9 83.63,32.8 133.93,32.8 55.38,0 104.75,-13.3 148.13,-39.9 43.36,-26.6 77.63,-62.8 102.77,-108.8 25.15,-45.9 37.72,-98.3 37.72,-157.4 0,-58.3 -12.57,-110.6 -37.72,-156.9 -25.14,-46.3 -59.41,-82.7 -102.77,-109.3 -43.38,-26.6 -92.75,-39.9 -148.13,-39.9 -50.3,0 -95.67,11.5 -136.12,34.4 -40.45,23 -70.89,55.6 -91.29,97.9 l 13.12,12 v -349.8 h -81.99"
         style="fill:#43afcb;fill-opacity:1;fill-rule:nonzero;stroke:none"
         transform="matrix(0.13333333,0,0,-0.13333333,0,4147.48)" />
      <path
         id="path27"
         d="m 3066.3,11741.9 c -52.48,0 -92.93,15.3 -121.36,45.9 -28.42,30.6 -42.64,74.3 -42.64,131.2 v 333.4 h -108.23 v 82 h 27.34 c 24.76,0 44.45,8.2 59.03,24.6 14.57,16.4 21.86,37 21.86,61.8 v 49.2 h 82.01 v -135.6 h 129 v -82 h -129 V 11919 c 0,-19.7 2.9,-37 8.74,-52 5.83,-14.9 15.85,-26.7 30.07,-35.5 14.2,-8.7 33.34,-13.1 57.39,-13.1 5.83,0 12.74,0.4 20.77,1.1 8.02,0.7 14.93,1.4 20.77,2.2 v -73.3 c -8.74,-2.2 -18.58,-3.8 -29.51,-4.9 -10.94,-1.1 -19.68,-1.6 -26.24,-1.6"
         style="fill:#43afcb;fill-opacity:1;fill-rule:nonzero;stroke:none"
         transform="matrix(0.13333333,0,0,-0.13333333,0,4147.48)" />
      <path
         id="path28"
         d="m 3511.25,11735.3 c -54.67,0 -104.05,13.3 -148.13,39.9 -44.12,26.6 -78.91,63.2 -104.42,109.9 -25.52,46.6 -38.26,99.5 -38.26,158.5 0,59 12.38,111.3 37.18,156.9 24.76,45.5 58.48,81.4 101.12,107.7 42.64,26.2 90.55,39.3 143.76,39.3 42.27,0 79.99,-7.8 113.16,-23.5 33.16,-15.7 61.4,-36.8 84.73,-63.4 23.32,-26.6 41.17,-56.5 53.57,-89.6 12.39,-33.2 18.59,-67.3 18.59,-102.3 0,-7.2 -0.38,-15.4 -1.09,-24.6 -0.74,-9.1 -1.83,-18.4 -3.29,-27.8 h -495.25 v 76.5 h 448.24 l -39.35,-32.8 c 6.56,40.1 2,76 -13.67,107.7 -15.68,31.7 -38.09,56.8 -67.23,75.4 -29.16,18.6 -61.97,27.9 -98.41,27.9 -36.46,0 -70.16,-9.5 -101.12,-28.4 -30.99,-19 -55.22,-45.4 -72.71,-79.3 -17.49,-33.9 -24.42,-74.2 -20.77,-120.8 -3.65,-46.6 3.83,-87.3 22.41,-121.9 18.59,-34.6 44.09,-61.4 76.54,-80.3 32.42,-19 67.23,-28.5 104.4,-28.5 43,0 79.08,10.2 108.24,30.6 29.14,20.4 52.83,46 71.07,76.6 l 69.96,-37.2 c -11.66,-26.2 -29.51,-50.5 -53.57,-72.7 -24.05,-22.2 -52.66,-40.1 -85.82,-53.6 -33.17,-13.4 -69.8,-20.2 -109.88,-20.2"
         style="fill:#43afcb;fill-opacity:1;fill-rule:nonzero;stroke:none"
         transform="matrix(0.13333333,0,0,-0.13333333,0,4147.48)" />
      <path
         id="path29"
         d="m 3916.85,11748.4 v 586 h 81.99 v -96.2 l -10.93,14.2 c 13.84,27.7 34.8,49.6 62.86,65.6 28.05,16 62.13,24.1 102.22,24.1 h 37.18 v -82 h -51.39 c -42.28,0 -76.17,-13.1 -101.67,-39.4 -25.53,-26.2 -38.27,-63.4 -38.27,-111.5 v -360.8 h -81.99"
         style="fill:#43afcb;fill-opacity:1;fill-rule:nonzero;stroke:none"
         transform="matrix(0.13333333,0,0,-0.13333333,0,4147.48)" />
      <path
         id="path30"
         d="m 21.3516,18998.4 c 0,326.9 265.9254,592.8 592.7774,592.8 326.851,0 592.771,-265.9 592.771,-592.8 0,-326.8 -265.92,-592.8 -592.771,-592.8 -326.852,0 -592.7774,266 -592.7774,592.8"
         style="fill:#43afcb;fill-opacity:1;fill-rule:nonzero;stroke:none"
         transform="matrix(0.13333333,0,0,-0.13333333,0,4147.48)" />
      <path
         id="path31"
         d="m 6183.55,18216.2 c 107.72,0 244.25,-16.2 295.4,-23 v 977.7 c 0,0 -213.46,27.8 -473.62,27.8 -1042.75,0 -1819.03,-449.6 -1819.03,-1565.8 l -0.51,-624.7 C 4169.07,16612 3758.84,16021 3161.41,16021 c -762.71,0 -969.42,606.4 -969.42,882.4 0,549.3 510.72,920.4 1043.92,920.4 98.78,0 110.03,-0.4 196.41,-4.6 l 0.18,971.9 c 0,0 -165.5,16.6 -260.82,16.6 -951.38,0 -1778,-591.2 -2009.68,-1445.1 v 650.6 H 66.6719 L 66.3125,15012.7 H 1162 v 1366.1 c 240.12,-888.2 1109.95,-1440.1 1925.79,-1440.1 468.01,0 846.12,175.5 1139.21,432.5 l -0.33,-358.7 h 1053.82 v 1428.7 H 6308.5 v 917.3 H 5280.49 v 302.8 c 0,488.2 507.24,554.9 903.06,554.9"
         style="fill:#ffffff;fill-opacity:1;fill-rule:nonzero;stroke:none"
         transform="matrix(0.13333333,0,0,-0.13333333,0,4147.48)" />
      <path
         id="path32"
         d="m 456.488,1627.9 c -65.156,0 -125.566,12 -181.23,35.9 -55.672,23.9 -103.914,57.1 -144.746,99.6 C 89.6875,1805.8 57.7188,1856 34.6406,1913.7 11.5391,1971.4 0,2034.9 0,2104.2 c 0,68.5 11.3281,131.8 34.0195,189.9 22.6758,58.2 54.6289,108.4 95.8785,150.9 41.231,42.5 89.473,75.5 144.735,99 55.246,23.5 115.871,35.3 181.855,35.3 65.149,0 123.508,-11.2 175.059,-33.4 51.543,-22.3 95.051,-51.4 130.519,-87.2 35.457,-35.9 61.024,-74.9 76.7,-117 l -131.133,-61.8 c -19.785,49.5 -51.34,89.7 -94.649,120.6 -43.293,30.9 -95.468,46.4 -156.496,46.4 -61.043,0 -115.047,-14.4 -162.058,-43.3 -47.012,-28.9 -83.508,-68.9 -109.485,-120 -25.976,-51.1 -38.972,-110.9 -38.972,-179.4 0,-68.4 12.996,-128.4 38.972,-180 25.977,-51.5 62.473,-91.5 109.485,-120 47.011,-28.4 101.015,-42.7 162.058,-42.7 61.028,0 113.203,15.3 156.496,45.8 43.309,30.5 74.864,70.5 94.649,120 l 131.133,-61.9 c -15.676,-41.2 -41.243,-80 -76.7,-116.3 -35.468,-36.2 -78.976,-65.5 -130.519,-87.8 -51.551,-22.2 -109.91,-33.4 -175.059,-33.4"
         style="fill:#ffffff;fill-opacity:1;fill-rule:nonzero;stroke:none"
         transform="matrix(0.13333333,0,0,-0.13333333,0,4147.48)" />
      <path
         id="path33"
         d="m 1034.23,1370.6 c -16.51,0 -32.78,1.4 -48.863,4.3 -16.086,2.9 -30.742,7.3 -43.918,13 v 120 c 9.895,-2.5 21.836,-4.7 35.871,-6.8 14.012,-2 27.63,-3.1 40.83,-3.1 38.75,0 67.42,8.5 85.98,25.4 18.55,16.9 35.25,42.7 50.09,77.3 l 44.54,101.4 -2.47,-117.5 L 906.801,2312 H 1056.5 l 214.01,-557.9 h -50.71 l 212.78,557.9 h 150.92 l -295.66,-742.2 c -15.68,-39.6 -35.26,-74.4 -58.76,-104.6 -23.51,-30.1 -51.16,-53.4 -82.89,-69.9 -31.76,-16.4 -69.09,-24.7 -111.96,-24.7"
         style="fill:#ffffff;fill-opacity:1;fill-rule:nonzero;stroke:none"
         transform="matrix(0.13333333,0,0,-0.13333333,0,4147.48)" />
      <path
         id="path34"
         d="m 2022.67,1757.8 c 39.59,0 74.63,9.5 105.16,28.5 30.5,18.9 54.62,45.1 72.37,78.5 17.72,33.4 26.59,71.2 26.59,113.2 0,42.1 -8.87,79.6 -26.59,112.6 -17.75,33 -41.87,59 -72.37,77.9 -30.53,19 -65.57,28.5 -105.16,28.5 -38.78,0 -73.61,-9.5 -104.54,-28.5 -30.93,-18.9 -55.26,-44.9 -72.99,-77.9 -17.74,-33 -26.59,-70.5 -26.59,-112.6 0,-42 8.85,-79.8 26.59,-113.2 17.73,-33.4 42.06,-59.6 72.99,-78.5 30.93,-19 65.76,-28.5 104.54,-28.5 z M 1678.75,1395.3 V 2312 h 133.61 v -138.5 l -16.09,32.2 c 24.75,37.9 57.73,67.6 98.98,89 41.23,21.5 88.24,32.2 141.02,32.2 63.51,0 120.63,-15.3 171.35,-45.8 50.71,-30.5 90.71,-72.2 120,-124.9 29.26,-52.8 43.92,-112.2 43.92,-178.2 0,-66 -14.66,-125.4 -43.92,-178.1 -29.29,-52.8 -69.09,-94.7 -119.38,-125.6 -50.32,-30.9 -107.63,-46.4 -171.97,-46.4 -51.95,0 -99.18,10.7 -141.64,32.2 -42.49,21.4 -75.27,52.4 -98.36,92.8 l 22.28,25.9 v -383.5 h -139.8"
         style="fill:#ffffff;fill-opacity:1;fill-rule:nonzero;stroke:none"
         transform="matrix(0.13333333,0,0,-0.13333333,0,4147.48)" />
      <path
         id="path35"
         d="M 2507.61,1642.8 V 2312 h 133.62 v -134.8 l -12.37,19.8 c 14.85,43.7 38.75,75.2 71.75,94.6 32.98,19.4 72.57,29.1 118.76,29.1 h 40.83 v -127.4 h -58.14 c -46.21,0 -83.51,-14.2 -111.97,-42.7 -28.44,-28.4 -42.67,-69.1 -42.67,-121.9 v -385.9 h -139.81"
         style="fill:#ffffff;fill-opacity:1;fill-rule:nonzero;stroke:none"
         transform="matrix(0.13333333,0,0,-0.13333333,0,4147.48)" />
      <path
         id="path36"
         d="m 3194.21,1627.9 c -50.31,0 -94.44,11.4 -132.37,34 -37.94,22.7 -67.42,54.5 -88.45,95.3 -21.03,40.8 -31.55,88 -31.55,141.6 V 2312 h 139.8 v -400.8 c 0,-30.5 6.19,-57.3 18.55,-80.4 12.37,-23.1 29.7,-41 51.96,-53.8 22.27,-12.8 47.83,-19.2 76.7,-19.2 29.7,0 55.68,6.6 77.94,19.8 22.27,13.2 39.79,31.7 52.58,55.7 12.77,23.9 19.17,51.9 19.17,84.1 V 2312 h 138.56 v -669.2 h -132.37 v 131.1 l 14.85,-17.3 c -15.68,-41.3 -41.66,-73 -77.94,-95.3 -36.3,-22.2 -78.77,-33.4 -127.43,-33.4"
         style="fill:#ffffff;fill-opacity:1;fill-rule:nonzero;stroke:none"
         transform="matrix(0.13333333,0,0,-0.13333333,0,4147.48)" />
      <path
         id="path37"
         d="m 3927.83,1627.9 c -68.47,0 -128.47,16.9 -180,50.7 -51.56,33.9 -87.65,79.2 -108.25,136.1 l 107.63,50.7 c 18.13,-37.9 43.09,-68 74.85,-90.3 31.73,-22.2 66.99,-33.4 105.77,-33.4 32.98,0 59.78,7.4 80.41,22.3 20.6,14.8 30.93,35 30.93,60.6 0,16.5 -4.55,29.9 -13.61,40.2 -9.09,10.3 -20.42,18.8 -34.02,25.4 -13.62,6.6 -27.43,11.5 -41.45,14.8 l -105.15,29.7 c -57.74,16.5 -100.82,41.5 -129.28,74.9 -28.45,33.4 -42.68,72.3 -42.68,116.9 0,40.4 10.31,75.6 30.93,105.8 20.61,30.1 49.05,53.3 85.36,69.8 36.28,16.5 77.1,24.8 122.47,24.8 61.03,0 115.46,-15.1 163.3,-45.2 47.83,-30.1 81.65,-71.9 101.45,-125.5 l -107.64,-50.8 c -13.19,32.2 -34.01,57.8 -62.47,76.8 -28.46,18.9 -60.42,28.4 -95.88,28.4 -30.51,0 -54.85,-7.2 -72.99,-21.6 -18.14,-14.5 -27.21,-33.2 -27.21,-56.3 0,-15.7 4.12,-28.7 12.37,-39 8.23,-10.3 18.97,-18.6 32.17,-24.7 13.18,-6.2 26.79,-11.4 40.82,-15.5 l 108.87,-32.2 c 55.24,-15.6 97.73,-40.2 127.42,-73.6 29.69,-33.4 44.54,-73.2 44.54,-119.4 0,-39.6 -10.52,-74.4 -31.55,-104.5 -21.03,-30.1 -50.1,-53.6 -87.22,-70.5 -37.11,-16.9 -80.41,-25.4 -129.89,-25.4"
         style="fill:#ffffff;fill-opacity:1;fill-rule:nonzero;stroke:none"
         transform="matrix(0.13333333,0,0,-0.13333333,0,4147.48)" />
      <path
         id="path38"
         d="m 399.879,205.5 c -57.59,0 -110.422,10.402 -158.527,31.203 -48.106,20.797 -89.844,49.899 -125.18,87.399 -35.3634,37.601 -62.8634,81.8 -82.5392,132.902 C 13.9492,508 4.11328,564.102 4.11328,625.301 c 0,61.301 9.83592,117.402 29.51952,168.402 19.6758,51 47.1758,95.5 82.5392,133.399 35.336,37.898 77.074,67.203 125.18,87.998 48.105,20.8 100.937,31.1 158.527,31.1 55.371,0 105.117,-9.8 149.226,-29.5 44.083,-19.696 81.262,-44.997 111.524,-75.997 30.234,-30.898 51.926,-63.601 65.051,-97.801 l -82.004,-36.097 c -20.418,47.398 -51.582,85.5 -93.477,114.297 -41.922,28.703 -92.019,43.101 -150.32,43.101 C 340.102,964.203 286.891,950 240.258,921.602 193.609,893.203 157.172,853.602 130.934,803 104.691,752.305 91.5742,693.102 91.5742,625.301 c 0,-67 13.1168,-126.098 39.3598,-177.098 26.238,-51 62.675,-90.5 109.324,-118.601 46.633,-28.098 99.844,-42.102 159.621,-42.102 58.301,0 108.398,14.203 150.32,42.703 41.895,28.399 73.059,66.301 93.477,113.699 L 725.68,407.801 C 712.555,374.203 690.863,342.004 660.629,311.004 630.367,280 593.188,254.703 549.105,235 504.996,215.402 455.25,205.5 399.879,205.5"
         style="fill:#ffffff;fill-opacity:1;fill-rule:nonzero;stroke:none"
         transform="matrix(0.13333333,0,0,-0.13333333,0,4147.48)" />
      <path
         id="path39"
         d="M 869.977,218.602 V 1046.2 h 81.992 V 690.902 l -18.586,4.399 c 14.57,37.902 38.437,67.801 71.617,89.699 33.15,21.805 71.61,32.801 115.34,32.801 41.54,0 78.88,-9.5 112.06,-28.496 33.15,-18.903 59.39,-45 78.71,-78.102 19.31,-33.203 28.97,-70.601 28.97,-112.101 v -380.5 h -82 v 348.8 c 0,35.7 -6.55,65.899 -19.68,90.7 -13.11,24.8 -31.15,43.902 -54.11,57.398 -22.96,13.504 -49.03,20.301 -78.17,20.301 -29.16,0 -55.39,-6.797 -78.71,-20.301 -23.34,-13.496 -41.73,-32.797 -55.219,-57.898 -13.484,-25.2 -20.222,-55.2 -20.222,-90.2 v -348.8 h -81.992"
         style="fill:#ffffff;fill-opacity:1;fill-rule:nonzero;stroke:none"
         transform="matrix(0.13333333,0,0,-0.13333333,0,4147.48)" />
      <path
         id="path40"
         d="m 1665.87,205.5 c -37.16,0 -70.35,7.102 -99.49,21.305 -29.16,14.297 -52.12,33.695 -68.88,58.496 -16.77,24.801 -25.14,53.203 -25.14,85.301 0,30.601 6.56,58.5 19.68,83.601 13.12,25.199 33.51,46.5 61.23,64 27.68,17.5 63.03,29.899 106.05,37.199 l 229.58,38.2 v -74.297 l -209.9,-35 c -42.29,-7.301 -72.72,-20.801 -91.3,-40.403 -18.58,-19.699 -27.88,-43.101 -27.88,-70 0,-26.3 10.39,-48.5 31.16,-66.699 20.78,-18.199 47.57,-27.301 80.36,-27.301 40.08,0 75.06,8.5 104.95,25.7 29.89,17.101 53.2,40.199 69.97,69.398 16.76,29.102 25.15,61.602 25.15,97.305 v 148.699 c 0,34.898 -12.76,63.398 -38.26,85.199 -25.53,21.899 -58.68,32.801 -99.49,32.801 -35.72,0 -67.06,-8.902 -94.02,-26.801 -26.97,-17.801 -47.02,-41 -60.14,-69.402 l -74.34,40.5 c 10.93,24.699 28.23,47.301 51.92,67.801 23.69,20.402 50.84,36.601 81.47,48.601 30.61,12 62.31,18.098 95.11,18.098 43,0 81.07,-8.399 114.25,-25.199 33.15,-16.801 59.03,-39.899 77.61,-69.399 18.6,-29.5 27.88,-63.601 27.88,-102.199 V 218.602 h -81.99 v 117 l 12.02,-12 c -10.21,-21.899 -26.06,-41.7 -47.55,-59.598 -21.51,-17.902 -46.66,-32.102 -75.44,-42.602 -28.79,-10.601 -60.31,-15.902 -94.57,-15.902"
         style="fill:#ffffff;fill-opacity:1;fill-rule:nonzero;stroke:none"
         transform="matrix(0.13333333,0,0,-0.13333333,0,4147.48)" />
      <path
         id="path41"
         d="m 2413.66,287.5 c 39.35,0 74.51,9.902 105.5,29.504 30.96,19.699 55.38,46.5 73.26,80.398 17.84,33.899 26.77,72 26.77,114.2 0,43 -8.93,81.3 -26.77,114.8 -17.88,33.5 -42.3,60.2 -73.26,79.801 -30.99,19.699 -66.15,29.598 -105.5,29.598 -39.36,0 -74.9,-9.899 -106.59,-29.598 -31.71,-19.601 -56.86,-46.398 -75.44,-80.301 -18.59,-33.898 -27.88,-72 -27.88,-114.3 0,-42.2 9.29,-80.301 27.88,-114.2 18.58,-33.898 43.73,-60.699 75.44,-80.398 31.69,-19.602 67.23,-29.504 106.59,-29.504 z M 2121.75,0 v 804.602 h 82 v -131.2 l -13.12,23 c 23.32,37.2 54.47,66.7 93.48,88.598 38.97,21.805 83.63,32.801 133.92,32.801 55.38,0 104.76,-13.399 148.14,-40 43.36,-26.598 77.62,-62.801 102.77,-108.699 25.15,-46 37.72,-98.399 37.72,-157.5 0,-58.301 -12.57,-110.598 -37.72,-156.797 -25.15,-46.301 -59.41,-82.801 -102.77,-109.403 -43.38,-26.601 -92.76,-39.902 -148.14,-39.902 -50.29,0 -95.66,11.504 -136.11,34.5 -40.45,22.902 -70.89,55.5 -91.29,97.801 l 13.12,12.004 V 0 h -82"
         style="fill:#ffffff;fill-opacity:1;fill-rule:nonzero;stroke:none"
         transform="matrix(0.13333333,0,0,-0.13333333,0,4147.48)" />
      <path
         id="path42"
         d="m 3064.16,212.102 c -52.49,0 -92.93,15.3 -121.36,45.898 -28.42,30.602 -42.64,74.305 -42.64,131.203 v 333.399 h -108.23 v 82 h 27.33 c 24.77,0 44.46,8.199 59.04,24.601 14.57,16.399 21.86,37 21.86,61.801 v 49.199 h 82 V 804.602 h 129.01 v -82 H 2982.16 V 389.203 c 0,-19.699 2.9,-37 8.74,-51.898 5.83,-15 15.85,-26.805 30.07,-35.602 14.21,-8.703 33.34,-13.101 57.39,-13.101 5.83,0 12.75,0.402 20.78,1.101 8.01,0.699 14.93,1.5 20.77,2.199 v -73.3 c -8.74,-2.098 -18.59,-3.797 -29.51,-4.899 -10.94,-1.101 -19.68,-1.601 -26.24,-1.601"
         style="fill:#ffffff;fill-opacity:1;fill-rule:nonzero;stroke:none"
         transform="matrix(0.13333333,0,0,-0.13333333,0,4147.48)" />
      <path
         id="path43"
         d="m 3509.11,205.5 c -54.67,0 -104.06,13.301 -148.14,39.902 -44.11,26.602 -78.9,63.301 -104.41,109.899 -25.52,46.601 -38.26,99.504 -38.26,158.5 0,59.101 12.38,111.301 37.17,156.902 24.77,45.5 58.49,81.5 101.13,107.699 42.63,26.2 90.54,39.399 143.76,39.399 42.26,0 79.99,-7.899 113.16,-23.598 33.15,-15.601 61.4,-36.801 84.73,-63.402 23.32,-26.598 41.17,-56.496 53.57,-89.598 12.38,-33.203 18.59,-67.199 18.59,-102.199 0,-7.301 -0.39,-15.5 -1.1,-24.602 -0.73,-9.199 -1.82,-18.398 -3.28,-27.898 H 3270.78 V 563 h 448.24 l -39.36,-32.797 c 6.57,40.098 2.01,76 -13.66,107.699 -15.68,31.7 -38.09,56.903 -67.24,75.399 -29.16,18.601 -61.97,27.902 -98.4,27.902 -36.46,0 -70.16,-9.5 -101.13,-28.402 -30.98,-19 -55.21,-45.399 -72.7,-79.297 -17.49,-33.902 -24.43,-74.102 -20.77,-120.801 -3.66,-46.601 3.82,-87.301 22.41,-121.902 18.58,-34.598 44.09,-61.399 76.53,-80.301 32.42,-18.996 67.24,-28.496 104.41,-28.496 42.99,0 79.08,10.199 108.24,30.699 29.14,20.399 52.83,45.899 71.06,76.5 l 69.96,-37.199 c -11.66,-26.203 -29.51,-50.5 -53.56,-72.699 -24.05,-22.203 -52.67,-40.102 -85.82,-53.504 -33.17,-13.496 -69.81,-20.301 -109.88,-20.301"
         style="fill:#ffffff;fill-opacity:1;fill-rule:nonzero;stroke:none"
         transform="matrix(0.13333333,0,0,-0.13333333,0,4147.48)" />
      <path
         id="path44"
         d="m 3914.7,218.602 v 586 h 81.99 v -96.2 l -10.92,14.2 c 13.83,27.699 34.79,49.601 62.86,65.601 28.04,16.102 62.13,24.102 102.21,24.102 h 37.18 v -82.004 h -51.38 c -42.28,0 -76.18,-13.098 -101.67,-39.399 -25.53,-26.199 -38.28,-63.402 -38.28,-111.5 v -360.8 h -81.99"
         style="fill:#ffffff;fill-opacity:1;fill-rule:nonzero;stroke:none"
         transform="matrix(0.13333333,0,0,-0.13333333,0,4147.48)" />
      <path
         id="path45"
         d="m 19.207,7468.6 c 0,326.9 265.926,592.8 592.777,592.8 326.852,0 592.776,-265.9 592.776,-592.8 0,-326.8 -265.924,-592.8 -592.776,-592.8 -326.851,0 -592.777,266 -592.777,592.8"
         style="fill:#ffffff;fill-opacity:1;fill-rule:nonzero;stroke:none"
         transform="matrix(0.13333333,0,0,-0.13333333,0,4147.48)" />
      <path
         id="path46"
         d="m 6181.41,6686.4 c 107.71,0 244.25,-16.2 295.39,-23 v 977.7 c 0,0 -213.46,27.8 -473.62,27.8 -1042.74,0 -1819.02,-449.6 -1819.02,-1565.8 l -0.51,-624.7 c -16.72,-396.2 -426.95,-987.1 -1024.38,-987.1 -762.72,0 -969.42,606.3 -969.42,882.3 0,549.3 510.72,920.5 1043.91,920.5 98.78,0 110.03,-0.5 196.41,-4.7 l 0.18,971.9 c 0,0 -165.49,16.6 -260.82,16.6 -951.38,0 -1777.99,-591.1 -2009.67,-1445 v 650.5 H 64.5273 L 64.168,3482.9 H 1159.86 V 4849 c 240.11,-888.1 1109.94,-1440 1925.78,-1440 468.01,0 846.13,175.4 1139.21,432.4 l -0.33,-358.6 h 1053.82 v 1428.6 h 1028.01 v 917.3 H 5278.34 v 302.9 c 0,488.1 507.24,554.8 903.07,554.8"
         style="fill:#ffffff;fill-opacity:1;fill-rule:nonzero;stroke:none"
         transform="matrix(0.13333333,0,0,-0.13333333,0,4147.48)" />
    </g>
  </g>
</svg>
